<svg xmlns="http://www.w3.org/2000/svg" width="2798.777" height="1668.221"><g color="#000"><path style="marker:none" fill="#939dac" overflow="visible" d="M0 1668.22h2798.777V0H0z"/><path style="marker:none" d="M1914.493 128.05c-28.11-.097-55.955 2.695-83.656 8.313-121.104 24.562-239.723 106.256-353.5 243.469-112.26 135.384-214.47 310.637-344.657 591-15.56 33.51-27.67 60.05-91.593 201-57.254 126.242-91.021 195.867-121.97 251.5-56.634 101.811-102.919 153.297-150.218 167.062-7.136 2.077-11.693 2.684-22 2.97-7.15.197-15.25-.033-18-.532-18.158-3.296-39.783-12.8-59.781-26.281-28.536-19.238-45.395-34.465-116.719-105.25-55.754-55.334-76.7-75.205-98.5-93.532-63.727-53.573-118.97-81.677-173-88.03-14.944-1.758-40.083-.63-55.062 2.5-65.488 13.677-125.18 64.595-177.157 151.093-14.99 24.947-31.486 57.237-44.437 87l-4.25 9.781v138.094h2798.781v-1025.5l-2.125-.5c-23.275-5.523-49.374-15.374-77.75-29.375-50.725-25.03-100.592-59.32-172.937-118.906-10.415-8.578-46.415-39.197-80-68.032-105.969-90.978-146.118-123.529-198.375-160.937-128.235-91.797-242.816-136.522-353.094-136.906z" fill="#b7bec8" overflow="visible"/><path style="marker:none" d="M2796.149 684.957c-6.115 0-39.602 2.975-56.562 5.031-124.148 15.053-222.562 55.27-313.75 128.219-35.795 28.635-74.746 66.799-109.47 107.25-55.072 64.159-110.954 146.328-168 247-37.648 66.44-69.06 127.088-133.062 257-64.582 131.09-92.263 183.266-119.156 224.5-4.484 6.875-8.517 13.062-8.937 13.75-.152.248.194.461 1.25.625h910.375V684.957h-2.688zm-1546.562 567c-68.986 0-137.387 37.325-210.375 114.781-27.325 28.997-52.421 59.26-99.625 120.219-54.457 70.325-78.789 98.497-103.344 119.625-55.873 48.074-100.193 51.578-171.656 13.625-5.776-3.067-19.726-10.76-31-17.094-52.592-29.544-80.09-41.379-112.407-48.375-8.467-1.833-13.395-2.175-30.593-2.219-22.445-.056-28.814.829-46.97 6.625-41.498 13.25-83.58 48.885-120.905 102.344l-4.813 6.844h1366.344l-5.906-7.625c-15.39-19.856-31.243-42.534-82.75-118.25-36.48-53.626-61.323-87.965-86.625-119.719-92.522-116.112-175.556-170.781-259.375-170.781z" fill="#dbdee3" overflow="visible"/><path style="marker:none" d="M2626.274 1644.613c-2.906 8.945-5.386 16.505-6.594 20.031l6.594-20.03z" fill="#5aa02c" overflow="visible"/><path style="marker:none" d="M0 0v399.25c21.64 12.693 44.762 29.55 75.094 54.531 5.71 4.703 25.431 21.474 43.844 37.281 58.094 49.877 80.1 67.742 108.75 88.25 70.3 50.326 133.136 74.82 193.593 75.032a225.825 225.825 0 0045.844-4.532c66.392-13.465 131.437-58.276 193.813-133.5 61.543-74.22 117.566-170.298 188.937-324 8.53-18.37 15.174-32.915 50.219-110.187 15.39-33.937 27.65-60.36 38.187-82.125H0zm2560.5 0c22.156 38.71 37.503 74.43 94.594 218.594 46.567 117.59 64.041 159.804 82.25 198.75 21.495 45.977 41.852 83.122 61.437 111.969V0H2560.5z" fill="#6f7c91" overflow="visible"/></g></svg>